<svg width="129" height="34" viewBox="0 0 129 34" fill="none" xmlns="http://www.w3.org/2000/svg">
<rect width="129" height="34" rx="17" fill="#DB5549" fill-opacity="0.05"/>
<path d="M47.4505 22V11.0909H54.5457V12.7475H49.4267V15.7092H54.1781V17.3658H49.4267V20.3434H54.5883V22H47.4505ZM60.6208 13.8182V15.3097H55.7841V13.8182H60.6208ZM56.9933 22V13.0458C56.9933 12.4954 57.1069 12.0373 57.3342 11.6715C57.565 11.3058 57.874 11.0323 58.2611 10.8512C58.6481 10.6701 59.0778 10.5795 59.5501 10.5795C59.8839 10.5795 60.1804 10.6062 60.4397 10.6594C60.6989 10.7127 60.8907 10.7607 61.015 10.8033L60.6314 12.2947C60.5498 12.2699 60.4468 12.245 60.3225 12.2202C60.1982 12.1918 60.0597 12.1776 59.907 12.1776C59.5483 12.1776 59.2944 12.2646 59.1453 12.4386C58.9997 12.609 58.9269 12.854 58.9269 13.1737V22H56.9933ZM66.2751 13.8182V15.3097H61.4384V13.8182H66.2751ZM62.6476 22V13.0458C62.6476 12.4954 62.7612 12.0373 62.9885 11.6715C63.2193 11.3058 63.5283 11.0323 63.9153 10.8512C64.3024 10.6701 64.7321 10.5795 65.2044 10.5795C65.5382 10.5795 65.8347 10.6062 66.094 10.6594C66.3532 10.7127 66.545 10.7607 66.6693 10.8033L66.2857 12.2947C66.2041 12.2699 66.1011 12.245 65.9768 12.2202C65.8525 12.1918 65.714 12.1776 65.5613 12.1776C65.2026 12.1776 64.9487 12.2646 64.7996 12.4386C64.654 12.609 64.5812 12.854 64.5812 13.1737V22H62.6476ZM69.8613 22.1651C69.3428 22.1651 68.8758 22.0728 68.4604 21.8881C68.0484 21.6999 67.7217 21.4229 67.4802 21.0572C67.2423 20.6914 67.1234 20.2404 67.1234 19.7042C67.1234 19.2425 67.2086 18.8608 67.379 18.5589C67.5495 18.2571 67.7821 18.0156 68.0768 17.8345C68.3716 17.6534 68.7036 17.5167 69.0729 17.4244C69.4458 17.3285 69.8311 17.2592 70.2288 17.2166C70.7082 17.1669 71.0971 17.1225 71.3954 17.0835C71.6937 17.0408 71.9103 16.9769 72.0452 16.8917C72.1837 16.8029 72.253 16.6662 72.253 16.4815V16.4496C72.253 16.0483 72.134 15.7376 71.8961 15.5174C71.6582 15.2972 71.3155 15.1871 70.868 15.1871C70.3957 15.1871 70.0211 15.2901 69.7441 15.4961C69.4707 15.7021 69.286 15.9453 69.1901 16.2259L67.3897 15.9702C67.5317 15.473 67.7661 15.0575 68.0928 14.7237C68.4195 14.3864 68.819 14.1342 69.2913 13.9673C69.7636 13.7969 70.2856 13.7116 70.8574 13.7116C71.2516 13.7116 71.644 13.7578 72.0346 13.8501C72.4252 13.9425 72.7821 14.0952 73.1052 14.3082C73.4284 14.5178 73.6876 14.8036 73.8829 15.1658C74.0818 15.5281 74.1812 15.9808 74.1812 16.5241V22H72.3275V20.8761H72.2636C72.1464 21.1033 71.9813 21.3164 71.7682 21.5153C71.5587 21.7106 71.2942 21.8686 70.9746 21.9893C70.6585 22.1065 70.2874 22.1651 69.8613 22.1651ZM70.362 20.7482C70.7491 20.7482 71.0847 20.6719 71.3687 20.5192C71.6528 20.3629 71.8712 20.157 72.0239 19.9013C72.1802 19.6456 72.2583 19.3668 72.2583 19.065V18.1009C72.1979 18.1506 72.0949 18.1967 71.9494 18.2393C71.8073 18.282 71.6475 18.3192 71.4699 18.3512C71.2924 18.3832 71.1166 18.4116 70.9426 18.4364C70.7686 18.4613 70.6177 18.4826 70.4898 18.5004C70.2022 18.5394 69.9447 18.6033 69.7175 18.6921C69.4902 18.7809 69.3109 18.9052 69.1795 19.065C69.0481 19.2212 68.9824 19.4237 68.9824 19.6722C68.9824 20.0273 69.112 20.2955 69.3712 20.4766C69.6305 20.6577 69.9607 20.7482 70.362 20.7482ZM79.6891 22.1598C78.8723 22.1598 78.1709 21.9805 77.585 21.6218C77.0026 21.2631 76.5534 20.7678 76.2373 20.1357C75.9248 19.5 75.7686 18.7685 75.7686 17.9411C75.7686 17.1101 75.9284 16.3768 76.248 15.7411C76.5676 15.1019 77.0186 14.6048 77.601 14.2496C78.1869 13.891 78.8794 13.7116 79.6784 13.7116C80.3425 13.7116 80.9302 13.8342 81.4415 14.0792C81.9565 14.3207 82.3666 14.6634 82.672 15.1072C82.9774 15.5476 83.1514 16.0625 83.194 16.652H81.351C81.2764 16.2578 81.0989 15.9293 80.8183 15.6665C80.5413 15.4002 80.1702 15.267 79.705 15.267C79.3109 15.267 78.9646 15.3736 78.6663 15.5866C78.368 15.7962 78.1354 16.098 77.9685 16.4922C77.8052 16.8864 77.7235 17.3587 77.7235 17.9091C77.7235 18.4666 77.8052 18.946 77.9685 19.3473C78.1319 19.745 78.3609 20.0522 78.6557 20.2688C78.954 20.4819 79.3038 20.5884 79.705 20.5884C79.9891 20.5884 80.243 20.5352 80.4668 20.4286C80.694 20.3185 80.884 20.1605 81.0367 19.9545C81.1894 19.7486 81.2942 19.4982 81.351 19.2035H83.194C83.1479 19.7823 82.9774 20.2955 82.6827 20.7429C82.3879 21.1868 81.9866 21.5348 81.4788 21.7869C80.971 22.0355 80.3744 22.1598 79.6891 22.1598ZM88.3995 22.1598C87.5792 22.1598 86.8708 21.9893 86.2742 21.6484C85.6812 21.304 85.2248 20.8175 84.9052 20.1889C84.5856 19.5568 84.4258 18.8129 84.4258 17.957C84.4258 17.1154 84.5856 16.3768 84.9052 15.7411C85.2284 15.1019 85.6794 14.6048 86.2582 14.2496C86.837 13.891 87.5171 13.7116 88.2983 13.7116C88.8026 13.7116 89.2785 13.7933 89.7259 13.9567C90.1769 14.1165 90.5746 14.3651 90.9191 14.7024C91.2671 15.0398 91.5405 15.4695 91.7394 15.9915C91.9383 16.5099 92.0377 17.1278 92.0377 17.8452V18.4364H85.3314V17.1367H90.1893C90.1858 16.7674 90.1059 16.4389 89.9496 16.1513C89.7934 15.8601 89.575 15.631 89.2944 15.4641C89.0174 15.2972 88.6943 15.2138 88.325 15.2138C87.9308 15.2138 87.5846 15.3097 87.2863 15.5014C86.988 15.6896 86.7554 15.9382 86.5885 16.2472C86.4251 16.5526 86.3417 16.8881 86.3381 17.2539V18.3885C86.3381 18.8643 86.4251 19.2727 86.5991 19.6136C86.7731 19.951 87.0164 20.2102 87.3289 20.3913C87.6414 20.5689 88.0071 20.6577 88.4262 20.6577C88.7067 20.6577 88.9606 20.6186 89.1879 20.5405C89.4152 20.4588 89.6123 20.3398 89.7792 20.1836C89.9461 20.0273 90.0721 19.8338 90.1574 19.603L91.9578 19.8054C91.8441 20.2812 91.6275 20.6967 91.3079 21.0518C90.9919 21.4034 90.587 21.6768 90.0934 21.8722C89.5998 22.0639 89.0352 22.1598 88.3995 22.1598ZM93.669 22V13.8182H95.5387V15.1818H95.6239C95.773 14.7095 96.0287 14.3455 96.3909 14.0898C96.7567 13.8306 97.174 13.701 97.6427 13.701C97.7492 13.701 97.8682 13.7063 97.9996 13.717C98.1345 13.7241 98.2464 13.7365 98.3352 13.7543V15.5281C98.2535 15.4996 98.1239 15.4748 97.9463 15.4535C97.7723 15.4286 97.6036 15.4162 97.4403 15.4162C97.0887 15.4162 96.7727 15.4925 96.4921 15.6452C96.2152 15.7944 95.9968 16.0021 95.837 16.2685C95.6772 16.5348 95.5973 16.842 95.5973 17.19V22H93.669Z" fill="#DB5549"/>
<path d="M19.2003 20.1363L12.8643 13.8003" stroke="#DB5549" stroke-width="2.5" stroke-miterlimit="10" stroke-linecap="round" stroke-linejoin="round"/>
<path d="M19.1358 13.8638L12.7998 20.1998" stroke="#DB5549" stroke-width="2.5" stroke-miterlimit="10" stroke-linecap="round" stroke-linejoin="round"/>
</svg>
