<svg width="52" height="40" viewBox="0 0 52 40" fill="none" xmlns="http://www.w3.org/2000/svg">
<path d="M42 0H10C4.47715 0 0 4.47715 0 10V30C0 35.5228 4.47715 40 10 40H42C47.5228 40 52 35.5228 52 30V10C52 4.47715 47.5228 0 42 0Z" fill="#3EC94C" fill-opacity="0.5"/>
<path d="M43.0039 16.04L39.7439 19.3C39.3589 19.685 39.3589 20.315 39.7439 20.7L43.0039 23.96" stroke="#F0F0F3" stroke-width="1.5" stroke-miterlimit="10" stroke-linecap="round" stroke-linejoin="round"/>
<g filter="url(#filter0_d_2202_261)">
<path d="M30 20C30 25.52 25.52 30 20 30C14.48 30 10 25.52 10 20C10 14.48 14.48 10 20 10C25.52 10 30 14.48 30 20Z" stroke="#F0F0F3" stroke-width="2" stroke-linecap="round" stroke-linejoin="round"/>
</g>
<path d="M23.7099 23.1798L20.6099 21.3298C20.0699 21.0098 19.6299 20.2398 19.6299 19.6098V15.5098" stroke="#F0F0F3" stroke-width="2" stroke-linecap="round" stroke-linejoin="round"/>
<defs>
<filter id="filter0_d_2202_261" x="5" y="6" width="34" height="34" filterUnits="userSpaceOnUse" color-interpolation-filters="sRGB">
<feFlood flood-opacity="0" result="BackgroundImageFix"/>
<feColorMatrix in="SourceAlpha" type="matrix" values="0 0 0 0 0 0 0 0 0 0 0 0 0 0 0 0 0 0 127 0" result="hardAlpha"/>
<feOffset dx="2" dy="3"/>
<feGaussianBlur stdDeviation="3"/>
<feColorMatrix type="matrix" values="0 0 0 0 0.243137 0 0 0 0 0.788235 0 0 0 0 0.298039 0 0 0 0.8 0"/>
<feBlend mode="normal" in2="BackgroundImageFix" result="effect1_dropShadow_2202_261"/>
<feBlend mode="normal" in="SourceGraphic" in2="effect1_dropShadow_2202_261" result="shape"/>
</filter>
</defs>
</svg>
