<svg width="52" height="40" viewBox="0 0 52 40" fill="none" xmlns="http://www.w3.org/2000/svg">
<path d="M42 0H10C4.47715 0 0 4.47715 0 10V30C0 35.5228 4.47715 40 10 40H42C47.5229 40 52 35.5228 52 30V10C52 4.47715 47.5228 0 42 0Z" fill="#3EC94C" fill-opacity="0.1"/>
<path d="M39.4551 23.96L42.7151 20.7C43.1001 20.315 43.1001 19.685 42.7151 19.3L39.4551 16.04" stroke="#3EC94C" stroke-width="0.5" stroke-miterlimit="10" stroke-linecap="round" stroke-linejoin="round"/>
<path d="M30 20C30 25.52 25.52 30 20 30C14.48 30 10 25.52 10 20C10 14.48 14.48 10 20 10C25.52 10 30 14.48 30 20Z" stroke="#3EC94C" stroke-width="1.5" stroke-linecap="round" stroke-linejoin="round"/>
<path d="M23.7099 23.1798L20.6099 21.3298C20.0699 21.0098 19.6299 20.2398 19.6299 19.6098V15.5098" stroke="#3EC94C" stroke-width="1.5" stroke-linecap="round" stroke-linejoin="round"/>
</svg>
